# xmcd CD database file
#
# Track frame offsets:
#	150
#	31747
#	51877
#
# Disc length: 1068 seconds
#
# Revision: 1
# Processed by: cddbd v1.5.1PL0 Copyright (c) Steve Scherf et al.
# Submitted via: CDex 1.51
#
DISCID=1b042a03
DTITLE=中村一義 - 永遠なるもの
DYEAR=1997
DGENRE=Japanese Pop
TTITLE0=永遠なるもの
TTITLE1=永遠なるもの (管弦楽器編)
TTITLE2=永遠なるもの (ちょい短編)
EXTD=YEAR: 1997
EXTT0=
EXTT1=
EXTT2=
PLAYORDER=
